<svg width="500" height="551" viewBox="0 0 500 551" fill="none" xmlns="http://www.w3.org/2000/svg">
<path d="M283.644 476.807C378.852 476.807 456.034 399.625 456.034 304.417C456.034 209.208 378.852 132.026 283.644 132.026C188.435 132.026 111.253 209.208 111.253 304.417C111.253 399.625 188.435 476.807 283.644 476.807Z" fill="#2F2E41"/>
<path d="M257.458 439.71H205.086V533.543H257.458V439.71Z" fill="#2F2E41"/>
<path d="M362.202 439.71H309.83V533.543H362.202V439.71Z" fill="#2F2E41"/>
<path d="M248.729 551C272.832 551 292.372 543.673 292.372 534.634C292.372 525.595 272.832 518.268 248.729 518.268C224.626 518.268 205.086 525.595 205.086 534.634C205.086 543.673 224.626 551 248.729 551Z" fill="#2F2E41"/>
<path d="M353.473 548.818C377.577 548.818 397.116 541.49 397.116 532.452C397.116 523.413 377.577 516.086 353.473 516.086C329.37 516.086 309.83 523.413 309.83 532.452C309.83 541.49 329.37 548.818 353.473 548.818Z" fill="#2F2E41"/>
<path d="M288.008 319.692C320.548 319.692 346.926 293.313 346.926 260.774C346.926 228.234 320.548 201.855 288.008 201.855C255.468 201.855 229.09 228.234 229.09 260.774C229.09 293.313 255.468 319.692 288.008 319.692Z" fill="white"/>
<path d="M288.008 280.413C298.855 280.413 307.647 271.62 307.647 260.773C307.647 249.927 298.855 241.134 288.008 241.134C277.162 241.134 268.369 249.927 268.369 260.773C268.369 271.62 277.162 280.413 288.008 280.413Z" fill="#3F3D56"/>
<path d="M116.419 144.099C102.499 81.7599 146.995 18.7691 215.803 3.40489C284.611 -11.9593 351.675 26.1211 365.595 88.46C379.514 150.799 333.913 173.79 265.105 189.155C196.297 204.519 130.338 206.438 116.419 144.099Z" fill="#6C63FF"/>
<path d="M468.26 183.898C485.256 139.431 487.718 99.0586 473.758 93.723C459.799 88.3874 434.704 120.11 417.708 164.576C400.712 209.043 398.25 249.416 412.21 254.752C426.169 260.087 451.264 228.365 468.26 183.898Z" fill="#2F2E41"/>
<path d="M167.355 261.364C173.759 247.861 144.083 220.378 101.071 199.978C58.0593 179.578 17.9998 173.987 11.5957 187.49C5.19157 200.992 34.8679 228.476 77.8797 248.876C120.891 269.275 160.951 274.867 167.355 261.364Z" fill="#2F2E41"/>
<path d="M198.966 366.608C198.966 383.48 242.409 416.798 290.616 416.798C338.823 416.798 384.022 369.296 384.022 352.424C384.022 335.552 338.823 355.697 290.616 355.697C242.409 355.697 198.966 349.736 198.966 366.608Z" fill="white"/>
</svg>
